#tb 0: 1/44100
#media_type 0: audio
#codec_id 0: pcm_s16le
#sample_rate 0: 44100
#channel_layout 0: 3
0,          0,          0,     1024,     4096, 0x7b2101ec
0,       1024,       1024,     1024,     4096, 0x5c16fc93
0,       2048,       2048,     1024,     4096, 0x62bdee5d
0,       3072,       3072,     1024,     4096, 0x0299ee41
0,       4096,       4096,     1024,     4096, 0xdd2efe95
0,       5120,       5120,     1024,     4096, 0xe9380628
0,       6144,       6144,     1024,     4096, 0x5d84f1f3
0,       7168,       7168,     1024,     4096, 0x598beeb3
0,       8192,       8192,     1024,     4096, 0x21fefb25
0,       9216,       9216,     1024,     4096, 0x053afefb
0,      10240,      10240,     1024,     4096, 0xb993fd2b
0,      11264,      11264,     1024,     4096, 0xa05aeae1
0,      12288,      12288,     1024,     4096, 0x3e1ff497
0,      13312,      13312,     1024,     4096, 0x7f5a086c
0,      14336,      14336,     1024,     4096, 0xad580300
0,      15360,      15360,     1024,     4096, 0xbcaff05d
0,      16384,      16384,     1024,     4096, 0xfd8def91
0,      17408,      17408,     1024,     4096, 0x5cfdfa7b
0,      18432,      18432,     1024,     4096, 0xd67dff11
0,      19456,      19456,     1024,     4096, 0x01b2ff0f
0,      20480,      20480,     1024,     4096, 0x7138ec9d
0,      21504,      21504,     1024,     4096, 0xb09ef761
0,      22528,      22528,     1024,     4096, 0x92f3f97b
0,      23552,      23552,     1024,     4096, 0x2ee8fe7d
0,      24576,      24576,     1024,     4096, 0x290ef437
0,      25600,      25600,     1024,     4096, 0x37daee71
0,      26624,      26624,     1024,     4096, 0x63e9f5e1
0,      27648,      27648,     1024,     4096, 0x643008d0
0,      28672,      28672,     1024,     4096, 0xa427fc59
0,      29696,      29696,     1024,     4096, 0xf196ed25
0,      30720,      30720,     1024,     4096, 0xc1edeab9
0,      31744,      31744,     1024,     4096, 0xaf9a0280
0,      32768,      32768,     1024,     4096, 0x86cf0026
0,      33792,      33792,     1024,     4096, 0x5c16fc93
0,      34816,      34816,     1024,     4096, 0x62bdee5d
0,      35840,      35840,     1024,     4096, 0x0299ee41
0,      36864,      36864,     1024,     4096, 0xdd2efe95
0,      37888,      37888,     1024,     4096, 0xe9380628
0,      38912,      38912,     1024,     4096, 0x5d84f1f3
0,      39936,      39936,     1024,     4096, 0x598beeb3
0,      40960,      40960,     1024,     4096, 0x21fefb25
0,      41984,      41984,     1024,     4096, 0x053afefb
0,      43008,      43008,     1024,     4096, 0xb993fd2b
0,      44032,      44032,     1024,     4096, 0xeccc08c6
0,      45056,      45056,     1024,     4096, 0xceb5f1af
0,      46080,      46080,     1024,     4096, 0xfee9e279
0,      47104,      47104,     1024,     4096, 0x4b2a02cc
0,      48128,      48128,     1024,     4096, 0xdc22ff19
0,      49152,      49152,     1024,     4096, 0x557cf4e9
0,      50176,      50176,     1024,     4096, 0x7fe2042c
0,      51200,      51200,     1024,     4096, 0x0793eb0b
0,      52224,      52224,     1024,     4096, 0x8bba058e
0,      53248,      53248,     1024,     4096, 0x3336f807
0,      54272,      54272,     1024,     4096, 0x86cef823
0,      55296,      55296,     1024,     4096, 0x07cbefb1
0,      56320,      56320,     1024,     4096, 0x01c3fab1
0,      57344,      57344,     1024,     4096, 0xb9a60534
0,      58368,      58368,     1024,     4096, 0xf8cf0e82
0,      59392,      59392,     1024,     4096, 0x5caef379
0,      60416,      60416,     1024,     4096, 0xe2a9dbbd
0,      61440,      61440,     1024,     4096, 0xe31c09a6
0,      62464,      62464,     1024,     4096, 0x0524f37d
0,      63488,      63488,     1024,     4096, 0x92101602
0,      64512,      64512,     1024,     4096, 0xed00d97b
0,      65536,      65536,     1024,     4096, 0x2058f609
0,      66560,      66560,     1024,     4096, 0x30d20634
0,      67584,      67584,     1024,     4096, 0xa0ddf055
0,      68608,      68608,     1024,     4096, 0xe23e1946
0,      69632,      69632,     1024,     4096, 0x2c1af97f
0,      70656,      70656,     1024,     4096, 0x77f6f2a9
0,      71680,      71680,     1024,     4096, 0x2b67ff03
0,      72704,      72704,     1024,     4096, 0x3e26f14b
0,      73728,      73728,     1024,     4096, 0x0439e425
0,      74752,      74752,     1024,     4096, 0xb08ef9d1
0,      75776,      75776,     1024,     4096, 0xac9fede5
0,      76800,      76800,     1024,     4096, 0xa637f3e7
0,      77824,      77824,     1024,     4096, 0xbf7307b0
0,      78848,      78848,     1024,     4096, 0xce41f5b3
0,      79872,      79872,     1024,     4096, 0xd6b8f619
0,      80896,      80896,     1024,     4096, 0x5837097e
0,      81920,      81920,     1024,     4096, 0xc6affc23
0,      82944,      82944,     1024,     4096, 0x630e070c
0,      83968,      83968,     1024,     4096, 0x570ffcd5
0,      84992,      84992,     1024,     4096, 0x71ede781
0,      86016,      86016,     1024,     4096, 0x703afda5
0,      87040,      87040,     1024,     4096, 0x71390f4c
0,      88064,      88064,     1024,     4096, 0x3961f293
0,      89088,      89088,     1024,     4096, 0xd288b2b9
0,      90112,      90112,     1024,     4096, 0xbf4c2946
0,      91136,      91136,     1024,     4096, 0x71deea79
0,      92160,      92160,     1024,     4096, 0xbb37625e
0,      93184,      93184,     1024,     4096, 0xd84df25b
0,      94208,      94208,     1024,     4096, 0xfde1fc9f
0,      95232,      95232,     1024,     4096, 0x1a49de0f
0,      96256,      96256,     1024,     4096, 0x1b11eb13
0,      97280,      97280,     1024,     4096, 0x4ae88343
0,      98304,      98304,     1024,     4096, 0x299c361a
0,      99328,      99328,     1024,     4096, 0x14b7d5cd
0,     100352,     100352,     1024,     4096, 0x40a318fc
0,     101376,     101376,     1024,     4096, 0x7fb1d8c7
0,     102400,     102400,     1024,     4096, 0xfe57c82d
0,     103424,     103424,     1024,     4096, 0xf9a605fc
0,     104448,     104448,     1024,     4096, 0x29c912f2
0,     105472,     105472,     1024,     4096, 0x9886da01
0,     106496,     106496,     1024,     4096, 0x0398f57f
0,     107520,     107520,     1024,     4096, 0xed1901c8
0,     108544,     108544,     1024,     4096, 0xa439ef27
0,     109568,     109568,     1024,     4096, 0xf1a0ca51
0,     110592,     110592,     1024,     4096, 0xea605b14
0,     111616,     111616,     1024,     4096, 0xf014a837
0,     112640,     112640,     1024,     4096, 0x363e3b90
0,     113664,     113664,     1024,     4096, 0x24a10ca4
0,     114688,     114688,     1024,     4096, 0x5b562146
0,     115712,     115712,     1024,     4096, 0xb1291324
0,     116736,     116736,     1024,     4096, 0xd4797cbe
0,     117760,     117760,     1024,     4096, 0x526813b4
0,     118784,     118784,     1024,     4096, 0x634bc887
0,     119808,     119808,     1024,     4096, 0x6523e6c3
0,     120832,     120832,     1024,     4096, 0xa244da0d
0,     121856,     121856,     1024,     4096, 0xec5ba956
0,     122880,     122880,     1024,     4096, 0xf31b57a6
0,     123904,     123904,     1024,     4096, 0xf5262d84
0,     124928,     124928,     1024,     4096, 0x50c37f34
0,     125952,     125952,     1024,     4096, 0x81286432
0,     126976,     126976,     1024,     4096, 0x4d2340a2
0,     128000,     128000,     1024,     4096, 0x37be060a
0,     129024,     129024,     1024,     4096, 0xdad60e30
0,     130048,     130048,     1024,     4096, 0x376c38f6
0,     131072,     131072,     1024,     4096, 0xe44fe77d
0,     132096,     132096,     1024,     4096, 0xe7a4f806
0,     133120,     133120,     1024,     4096, 0xc652fc4c
0,     134144,     134144,     1024,     4096, 0xb8e8fbb6
0,     135168,     135168,     1024,     4096, 0x95480279
0,     136192,     136192,     1024,     4096, 0x095b0036
0,     137216,     137216,     1024,     4096, 0x5397fc40
0,     138240,     138240,     1024,     4096, 0xb836f79b
0,     139264,     139264,     1024,     4096, 0x370ef64f
0,     140288,     140288,     1024,     4096, 0xd6aefae9
0,     141312,     141312,     1024,     4096, 0xbe08f80a
0,     142336,     142336,     1024,     4096, 0x5b41ff1c
0,     143360,     143360,     1024,     4096, 0x5b86faee
0,     144384,     144384,     1024,     4096, 0x3a0ff0b5
0,     145408,     145408,     1024,     4096, 0x6157fa3f
0,     146432,     146432,     1024,     4096, 0x60a9f906
0,     147456,     147456,     1024,     4096, 0x8ecdfc26
0,     148480,     148480,     1024,     4096, 0x0146f112
0,     149504,     149504,     1024,     4096, 0xc163fe87
0,     150528,     150528,     1024,     4096, 0x2e78f5c4
0,     151552,     151552,     1024,     4096, 0x3e9bed7d
0,     152576,     152576,     1024,     4096, 0xb776009c
0,     153600,     153600,     1024,     4096, 0xea1efaba
0,     154624,     154624,     1024,     4096, 0x45f2ea57
0,     155648,     155648,     1024,     4096, 0x5456f53f
0,     156672,     156672,     1024,     4096, 0x7e3bf2b9
0,     157696,     157696,     1024,     4096, 0x0952fd4b
0,     158720,     158720,     1024,     4096, 0xb8e6f10c
0,     159744,     159744,     1024,     4096, 0xa07ff79c
0,     160768,     160768,     1024,     4096, 0x55bafbfd
0,     161792,     161792,     1024,     4096, 0xab81ed83
0,     162816,     162816,     1024,     4096, 0x5a610066
0,     163840,     163840,     1024,     4096, 0x0ac90160
0,     164864,     164864,     1024,     4096, 0x5745f93f
0,     165888,     165888,     1024,     4096, 0x9cf2f284
0,     166912,     166912,     1024,     4096, 0xd350ef0b
0,     167936,     167936,     1024,     4096, 0x3f47f217
0,     168960,     168960,     1024,     4096, 0xf178fbae
0,     169984,     169984,     1024,     4096, 0xf74a056a
0,     171008,     171008,     1024,     4096, 0xc345ede5
0,     172032,     172032,     1024,     4096, 0xa672f2be
0,     173056,     173056,     1024,     4096, 0xd5bcf917
0,     174080,     174080,     1024,     4096, 0x8126f699
0,     175104,     175104,     1024,     4096, 0xa0d3ebfd
0,     176128,     176128,     1024,     4096, 0x577f1d75
0,     177152,     177152,     1024,     4096, 0x6047ffe4
0,     178176,     178176,     1024,     4096, 0xe89df7c9
0,     179200,     179200,     1024,     4096, 0x2ea3f621
0,     180224,     180224,     1024,     4096, 0xda4f05ef
0,     181248,     181248,     1024,     4096, 0x5d7c07ba
0,     182272,     182272,     1024,     4096, 0x461be644
0,     183296,     183296,     1024,     4096, 0xce47f434
0,     184320,     184320,     1024,     4096, 0xb30bacee
0,     185344,     185344,     1024,     4096, 0x1c85f71d
0,     186368,     186368,     1024,     4096, 0xc9a0f1cd
0,     187392,     187392,     1024,     4096, 0xd939edde
0,     188416,     188416,     1024,     4096, 0xa8e0e086
0,     189440,     189440,     1024,     4096, 0xc0b6ff00
0,     190464,     190464,     1024,     4096, 0xdd84005e
0,     191488,     191488,     1024,     4096, 0x97d103bf
0,     192512,     192512,     1024,     4096, 0xa0241ffc
0,     193536,     193536,     1024,     4096, 0x91a4f35a
0,     194560,     194560,     1024,     4096, 0x61abf0b0
0,     195584,     195584,     1024,     4096, 0xa5d10111
0,     196608,     196608,     1024,     4096, 0x0e71f5ce
0,     197632,     197632,     1024,     4096, 0x4796f9fa
0,     198656,     198656,     1024,     4096, 0x561bf893
0,     199680,     199680,     1024,     4096, 0x70ddfb78
0,     200704,     200704,     1024,     4096, 0xe4f4c2b6
0,     201728,     201728,     1024,     4096, 0x5452f356
0,     202752,     202752,     1024,     4096, 0x84e2fd14
0,     203776,     203776,     1024,     4096, 0xd04b00a5
0,     204800,     204800,     1024,     4096, 0x01ca0f7c
0,     205824,     205824,     1024,     4096, 0x1685ef21
0,     206848,     206848,     1024,     4096, 0x50effa4f
0,     207872,     207872,     1024,     4096, 0xb5a9e82f
0,     208896,     208896,     1024,     4096, 0xa7343704
0,     209920,     209920,     1024,     4096, 0x6047ffe4
0,     210944,     210944,     1024,     4096, 0xe89df7c9
0,     211968,     211968,     1024,     4096, 0x2ea3f621
0,     212992,     212992,     1024,     4096, 0xda4f05ef
0,     214016,     214016,     1024,     4096, 0x5d7c07ba
0,     215040,     215040,     1024,     4096, 0x461be644
0,     216064,     216064,     1024,     4096, 0xce47f434
0,     217088,     217088,     1024,     4096, 0xb30bacee
0,     218112,     218112,     1024,     4096, 0x1c85f71d
0,     219136,     219136,     1024,     4096, 0xc9a0f1cd
0,     220160,     220160,     1024,     4096, 0xd939edde
0,     221184,     221184,     1024,     4096, 0xa8e0e086
0,     222208,     222208,     1024,     4096, 0xc0b6ff00
0,     223232,     223232,     1024,     4096, 0xdd84005e
0,     224256,     224256,     1024,     4096, 0x97d103bf
0,     225280,     225280,     1024,     4096, 0xa0241ffc
0,     226304,     226304,     1024,     4096, 0x91a4f35a
0,     227328,     227328,     1024,     4096, 0x61abf0b0
0,     228352,     228352,     1024,     4096, 0xa5d10111
0,     229376,     229376,     1024,     4096, 0x0e71f5ce
0,     230400,     230400,     1024,     4096, 0x4796f9fa
0,     231424,     231424,     1024,     4096, 0x561bf893
0,     232448,     232448,     1024,     4096, 0x70ddfb78
0,     233472,     233472,     1024,     4096, 0xe4f4c2b6
0,     234496,     234496,     1024,     4096, 0x5452f356
0,     235520,     235520,     1024,     4096, 0x84e2fd14
0,     236544,     236544,     1024,     4096, 0xd04b00a5
0,     237568,     237568,     1024,     4096, 0x01ca0f7c
0,     238592,     238592,     1024,     4096, 0x1685ef21
0,     239616,     239616,     1024,     4096, 0x50effa4f
0,     240640,     240640,     1024,     4096, 0xb5a9e82f
0,     241664,     241664,     1024,     4096, 0xa7343704
0,     242688,     242688,     1024,     4096, 0x6047ffe4
0,     243712,     243712,     1024,     4096, 0xe89df7c9
0,     244736,     244736,     1024,     4096, 0x2ea3f621
0,     245760,     245760,     1024,     4096, 0xda4f05ef
0,     246784,     246784,     1024,     4096, 0x5d7c07ba
0,     247808,     247808,     1024,     4096, 0x461be644
0,     248832,     248832,     1024,     4096, 0xce47f434
0,     249856,     249856,     1024,     4096, 0xb30bacee
0,     250880,     250880,     1024,     4096, 0x1c85f71d
0,     251904,     251904,     1024,     4096, 0xc9a0f1cd
0,     252928,     252928,     1024,     4096, 0xd939edde
0,     253952,     253952,     1024,     4096, 0xa8e0e086
0,     254976,     254976,     1024,     4096, 0xc0b6ff00
0,     256000,     256000,     1024,     4096, 0xdd84005e
0,     257024,     257024,     1024,     4096, 0x97d103bf
0,     258048,     258048,     1024,     4096, 0xa0241ffc
0,     259072,     259072,     1024,     4096, 0x91a4f35a
0,     260096,     260096,     1024,     4096, 0x61abf0b0
0,     261120,     261120,     1024,     4096, 0xa5d10111
0,     262144,     262144,     1024,     4096, 0x0e71f5ce
0,     263168,     263168,     1024,     4096, 0x4796f9fa
0,     264192,     264192,      408,     1632, 0x31842eec
